<?xml version="1.0" standalone="no"?>
<!DOCTYPE svg PUBLIC "-//W3C//DTD SVG 20010904//EN"
 "http://www.w3.org/TR/2001/REC-SVG-20010904/DTD/svg10.dtd">
<svg version="1.0" xmlns="http://www.w3.org/2000/svg"
 width="300.000000pt" height="300.000000pt" viewBox="0 0 300.000000 300.000000"
 preserveAspectRatio="xMidYMid meet">
<metadata>
Created by potrace 1.14, written by Peter Selinger 2001-2017
</metadata>
<g transform="translate(0.000000,300.000000) scale(0.100000,-0.100000)"
fill="#000000" stroke="none">
<path d="M1494 2851 c-2 -2 -37 -5 -76 -7 -106 -4 -199 -18 -228 -33 -41 -23
-144 -107 -188 -155 -38 -41 -46 -56 -44 -77 1 -4 -50 -42 -113 -84 -287 -193
-467 -474 -516 -808 -17 -119 -11 -288 14 -402 16 -70 40 -151 47 -160 5 -5 9
-14 10 -20 1 -5 6 -20 11 -33 5 -13 9 -25 9 -27 0 -2 16 -31 34 -64 l35 -61
-65 -1 c-35 -1 -68 -3 -74 -4 -5 -1 -14 -3 -20 -4 -5 0 -10 -17 -10 -36 0 -19
-3 -35 -7 -35 -5 -1 -55 -3 -113 -6 -66 -3 -107 -9 -112 -16 -4 -7 -4 -15 0
-18 12 -9 112 -139 112 -146 0 -4 -32 -49 -71 -100 -38 -52 -68 -98 -65 -103
6 -9 38 -8 274 4 l122 7 0 33 c0 19 3 36 8 38 4 3 88 8 187 11 99 3 173 3 165
-1 -8 -3 -30 -17 -47 -31 l-33 -24 0 -98 0 -98 62 -25 c177 -70 378 -101 653
-101 161 0 257 7 370 28 124 23 157 33 266 82 l59 27 0 87 0 87 -37 32 c-20
17 -32 31 -26 31 6 0 31 16 57 36 56 42 47 40 227 49 l144 7 0 -33 0 -34 100
1 c80 1 281 10 293 13 11 4 -6 35 -53 96 -30 39 -55 75 -55 79 0 6 29 48 67
96 59 74 72 94 67 102 -4 6 -55 8 -125 5 l-119 -4 0 34 0 33 -80 0 c-44 0 -80
2 -80 5 0 3 11 31 24 63 21 49 44 127 63 207 2 11 9 67 15 123 28 251 -40 524
-185 745 -68 105 -209 250 -306 316 -71 48 -215 122 -274 141 -32 10 -38 17
-48 56 -13 49 -70 121 -125 154 -27 17 -52 22 -115 24 -44 0 -83 -1 -85 -3z"/>
</g>
</svg>
